<?xml version="1.0" standalone="no"?><!DOCTYPE svg PUBLIC "-//W3C//DTD SVG 1.1//EN" "http://www.w3.org/Graphics/SVG/1.1/DTD/svg11.dtd"><svg t="1551779173042" class="icon" style="" viewBox="0 0 1024 1024" version="1.1" xmlns="http://www.w3.org/2000/svg" p-id="11196" xmlns:xlink="http://www.w3.org/1999/xlink" width="128" height="128"><defs><style type="text/css"></style></defs><path d="M915.7 555c-2.9-34.2-13.3-67.8-32.8-96.3-21.7-31.6-51.6-51.7-85.3-68.6-29.8-14.9-100.9-17.4-144.7-19.5 0.7-68.4 27.8-132.7 76.5-181.5 17.1-17.1 36-31.5 56.4-43 2.8-1.6 4.5-4.6 4.5-7.8V136c0-6.9-7.4-11.2-13.4-7.8-35.8 20.1-66.9 47.9-90.9 81.1-9.1 12.6-17.2 26-24.2 40-18 36.3-28.4 77.1-29 120.1-0.9-0.1-1.8-0.1-2.6-0.2-24-29.8-86.7-107.6-119.6-122.5-3.3-1.7-6.6-3.2-10-4.7-18.3-8.1-37.5-14-57.3-17-17.8-2.7-36.1-2.9-54-0.3-17.3 2.5-34.2 7.5-50.2 14.7-16.4 7.4-31.8 17-45.9 28.1-15 11.8-28.6 25.3-41 39.8-13.3 15.5-25.1 32.3-35.7 49.8-5.6 9.2-10.8 18.6-15.7 28.2-20.1 39.4-32.7 82.2-38.5 126.2-10.2 76.9 4.4 156.4 40.3 225 37.4 71.3 96 126 167.7 161.8 167.4 83.7 367.6 26.9 475.3-119.6 13.4-16.8 25.1-35.1 34.8-54.3 9.5-18.8 17.2-38.5 22.9-58.8 10.2-35.8 15.5-73.4 12.4-110.6z m-31.4 105.2c-5.5 19.1-12.7 37.6-21.6 55.2-9.2 18.3-20.2 35.4-32.6 50.9l-0.3 0.3-0.2 0.3c-11.9 16.2-25 31.2-39.1 45l-0.2 0.2c-2.4 2.4-4.9 4.7-7.4 7-4.3 4-8.7 7.9-13.2 11.6-2.1 1.8-4.3 3.6-6.5 5.3-3.3 2.7-6.7 5.3-10.1 7.8-2.4 1.8-4.8 3.6-7.3 5.3-0.5 0.4-1 0.7-1.5 1.1-15.8 11.1-32.4 20.9-49.6 29.4-4.1 2-8.2 3.9-12.3 5.8-5.2 2.3-10.6 4.6-15.9 6.7-19.6 7.7-39.9 13.7-60.6 17.9-1.1 0.2-2.3 0.5-3.5 0.7-2.4 0.5-4.8 0.9-7.3 1.3-1 0.2-2 0.3-3 0.5l-7.8 1.2c-0.8 0.1-1.7 0.2-2.5 0.3-15.5 2.1-31.2 3.1-47.1 3.1-54.5 0-106.8-12.4-155.6-36.7-69.7-34.9-124.7-87.8-158.9-153.2-34.1-65.3-47.6-141-38.1-213.1 5.7-43.3 18-83.6 36.5-119.7 4.7-9.3 9.8-18.3 15-26.9 10.5-17.3 21.8-33.2 33.8-47.2 12.1-14.2 24.9-26.6 38.2-37 13.4-10.5 27.4-19.1 41.7-25.5 14.5-6.5 29.6-11 44.8-13.1 7.5-1.1 15.2-1.6 22.9-1.6 8.4 0 16.9 0.6 25.3 1.9 17.1 2.6 34.7 7.8 52.3 15.5 3.1 1.4 6.2 2.8 9.3 4.3l0.3 0.1 0.3 0.1c11 5 40.2 26.8 112.2 116.8l5.4 6.7 8.6 0.7c8.2 0.7 19.1 1.2 31.7 1.8 39 1.9 104.2 5 128.4 17.1 37.1 18.5 61 37.7 77.7 62 16.5 24.1 26.6 54.1 29.4 86.7 2.8 32-1.2 66.8-11.6 103.4z" fill="#BA2A3B" p-id="11197"></path><path d="M866.6 470.1c-16.7-24.3-40.6-43.5-77.7-62-24.2-12.1-89.4-15.2-128.4-17.1-12.6-0.6-23.5-1.1-31.7-1.8l-8.6-0.7-5.4-6.7c-72-90-101.2-111.8-112.2-116.8l-0.3-0.1-0.3-0.1c-3.1-1.5-6.2-2.9-9.3-4.3-17.6-7.7-35.2-12.9-52.3-15.5-8.4-1.3-16.9-1.9-25.3-1.9-7.7 0-15.4 0.5-22.9 1.6-15.2 2.1-30.3 6.6-44.8 13.1-14.3 6.4-28.3 15-41.7 25.5-13.3 10.4-26.1 22.8-38.2 37-12 14-23.3 29.9-33.8 47.2-5.2 8.6-10.3 17.6-15 26.9-18.5 36.1-30.8 76.4-36.5 119.7-9.5 72.1 4 147.8 38.1 213.1 34.2 65.4 89.2 118.3 158.9 153.2 48.8 24.3 101.1 36.7 155.6 36.7 15.8 0 31.5-1.1 47.1-3.1 0.8-0.1 1.7-0.2 2.5-0.3l7.8-1.2c1-0.2 2-0.3 3-0.5 2.4-0.4 4.9-0.9 7.3-1.3 1.2-0.2 2.3-0.4 3.5-0.7 20.7-4.2 41-10.2 60.6-17.9 5.4-2.1 10.7-4.3 15.9-6.7 4.1-1.8 8.2-3.8 12.3-5.8 17.2-8.5 33.8-18.3 49.6-29.4 0.5-0.4 1-0.7 1.5-1.1 2.5-1.7 4.9-3.5 7.3-5.3 3.4-2.5 6.8-5.2 10.1-7.8 2.2-1.7 4.3-3.5 6.5-5.3 4.5-3.8 8.9-7.6 13.2-11.6 2.5-2.3 5-4.7 7.4-7l0.2-0.2c14.1-13.8 27.2-28.9 39.1-45l0.2-0.3 0.3-0.3c12.4-15.5 23.4-32.6 32.6-50.9 8.9-17.6 16.1-36.1 21.6-55.2 10.4-36.6 14.4-71.4 11.7-103.4-2.9-32.6-13-62.6-29.5-86.7z m-469.3-91.3c-33.2 20.1-60.9 50-78.2 87.5-2.2 4.8-7.9 7.1-12.8 5.1-5.3-2.1-7.7-8.3-5.4-13.4 19-41.3 49.4-74.2 85.9-96.3 2.7-1.6 6-1.9 9-0.7h0.1c7.7 3.1 8.5 13.5 1.4 17.8z" fill="#F85146" p-id="11198"></path><path d="M579 249.2c21.1 12.8 41.8 19.3 55.2 17.4 10.2-1.5 19.4-8 27.6-17.3 7-14 15.1-27.4 24.2-40 1.9-4.3 3.7-8.6 5.3-12.7 13.1-33.5 15.3-58.4 6.1-70.3-6.2-8.4-29.2-28.6-104.9-36.4-40.7-4.3-90.3-3.9-139.5 0.9 12 30.5 28.3 59.8 47.4 84.7 24.4 31.7 51.5 57.2 78.6 73.7zM531 107c21.5 0 41.5 1 59.5 2.8 7 0.7 13.5 1.5 19.5 2.4 2 0.3 3.9 0.6 5.8 0.9 0.9 0.2 1.9 0.3 2.8 0.5 4.6 0.8 8.9 1.7 12.9 2.6 2.4 0.5 4.7 1.1 6.8 1.7 1.5 0.4 2.9 0.8 4.2 1.1s2.7 0.8 3.9 1.1c6.4 1.9 11.6 3.9 16 5.8 0.9 0.4 1.7 0.8 2.5 1.1 4 1.9 7.1 3.7 9.5 5.2 0.5 0.3 0.9 0.6 1.3 0.9l1.2 0.9 1.5 1.2c0.7 0.6 1.3 1.1 1.7 1.6l0.3 0.3 0.4 0.4c0.4 0.4 0.5 0.6 0.6 0.7l0.2 0.3c0.6 0.8 1.3 3.2 1.4 7.9v2.5c-0.1 1.8-0.3 3.8-0.6 6.1l-0.3 1.8c-0.3 1.8-0.6 3.8-1.1 5.9-1.5 7.1-4.1 15.9-8.3 26.6-15.8 40.3-31.7 56.1-41.3 57.5-0.7 0.1-1.4 0.1-2.2 0.1-7.5 0-21.9-3.9-39.8-14.8-24.9-15.1-50.2-38.9-73.1-68.8-12.6-16.5-24-35.1-33.6-54.8 16.3-1 32.5-1.5 48.3-1.5z" fill="#4DBC56" p-id="11199"></path><path d="M589.4 232.1c17.9 10.9 32.3 14.8 39.8 14.8 0.8 0 1.5 0 2.2-0.1 9.6-1.4 25.5-17.2 41.3-57.5 4.2-10.8 6.8-19.5 8.3-26.6 0.5-2.1 0.8-4.1 1.1-5.9l0.3-1.8c0.3-2.3 0.5-4.3 0.6-6.1v-1.3-1.2c0-4.6-0.8-7.1-1.4-7.9l-0.2-0.3c-0.1-0.1-0.2-0.3-0.6-0.7l-0.4-0.4-0.3-0.3c-0.4-0.4-1-1-1.7-1.6-0.4-0.4-0.9-0.7-1.5-1.2l-1.2-0.9c-0.4-0.3-0.9-0.6-1.3-0.9-2.4-1.6-5.5-3.3-9.5-5.2-0.8-0.4-1.6-0.8-2.5-1.1-4.3-1.9-9.6-3.9-16-5.8-1.3-0.4-2.6-0.8-3.9-1.1s-2.8-0.8-4.2-1.1c-2.2-0.6-4.5-1.1-6.8-1.7-4-0.9-8.3-1.8-12.9-2.6-0.9-0.2-1.9-0.3-2.8-0.5-1.9-0.3-3.8-0.6-5.8-0.9-6-0.9-12.5-1.7-19.5-2.4-18-1.8-38-2.8-59.5-2.8-15.8 0-32 0.5-48.3 1.5 9.6 19.7 21 38.3 33.6 54.8 22.9 29.9 48.2 53.7 73.1 68.8z" fill="#7FE283" p-id="11200"></path><path d="M395.9 361c-3-1.2-6.4-1-9.1 0.7-36.5 22.1-66.9 55-85.9 96.3-2.4 5.2 0.1 11.3 5.4 13.4 4.9 2 10.6-0.2 12.8-5.1 17.3-37.5 45-67.4 78.2-87.5 7.1-4.3 6.3-14.7-1.4-17.8z" fill="#FFFFFF" p-id="11201"></path></svg>